<svg width="9.47" height="30" xmlns="http://www.w3.org/2000/svg" xmlns:svg="http://www.inkscape.org/namespaces/inkscape" xmlns:undefined="http://sodipodi.sourceforge.net/DTD/sodipodi-0.dtd" version="1.2">
 <metadata id="metadata3113">image/svg+xml</metadata>

 <!-- Page: 1/1 -->
 <g>
  <title>Layer 1</title>
  <text x="-24.0348" y="-1" font-family="Century Schoolbook L" fill="currentColor" text-anchor="start" id="text3021" font-size="2.2001px"/>
  <path stroke="null" fill="currentColor"  id="path3089" d="m2.23882,20.21891l-0.04146,3.14728l0,0.52455c0,1.04909 0.04146,2.09819 0.16584,3.14728c1.86568,-1.81207 3.85574,-3.81489 3.85574,-6.62837c0,-1.57364 -0.58043,-3.19497 -1.78276,-3.19497c-1.28525,0 -2.1559,1.43058 -2.19736,3.00422zm-1.7413,8.53581l-0.49751,-28.37323c0.33168,-0.23843 0.74627,-0.38149 1.11941,-0.38149c0.37314,0 0.78773,0.14306 1.11941,0.38149l-0.29022,16.45171c1.03649,-1.00141 2.40465,-1.62133 3.77282,-1.62133c2.1559,0 3.6899,2.28893 3.6899,4.86398c0,3.81489 -3.56552,5.57927 -6.09455,8.05895c-0.62189,0.61992 -0.99503,1.81207 -1.86568,1.81207c-0.53897,0 -0.95357,-0.52455 -0.95357,-1.19215z"/>
 </g>
</svg>