<svg width="10" height="30.000000000000004" xmlns="http://www.w3.org/2000/svg" xml:space="preserve" version="1.1">

 <g>
  <title>Layer 1</title>
  <g stroke="null" id="svg_1">
   <path stroke="null" id="svg_2" fill="#030104" d="m8.54433,21.4915c-1.93903,-1.9301 -5.07546,-1.92235 -7.00519,0.01581c-1.93066,1.93878 -1.92353,5.07482 0.01519,7.0043c1.93965,1.9301 5.0767,1.92297 7.00612,-0.01581c1.92973,-1.93878 1.92322,-5.07513 -0.01612,-7.0043z"/>
   <path stroke="null" id="svg_3" fill="#030104" d="m4.21546,27.45635l-0.54816,1.61421c0.79589,0.257 1.65286,0.27467 2.45743,0.0527l-0.20618,-1.679c-0.54909,0.1953 -1.15151,0.19933 -1.70309,0.01209zm-1.60232,-3.34002l-1.75021,-0.2663c-0.22974,0.82648 -0.20649,1.70938 0.06976,2.52439l1.70247,-0.42626c-0.22912,-0.58684 -0.23719,-1.24065 -0.02201,-1.83183zm6.40029,-0.5546l-1.53938,0.51926c0.24742,0.65288 0.22199,1.38511 -0.07658,2.02187l1.65906,0.20832c0.28679,-0.89375 0.27222,-1.86283 -0.0431,-2.74945zm-5.3852,-2.61956l0.31563,1.71372c0.62846,-0.29575 1.35056,-0.32551 1.99732,-0.08928l0.4908,-1.59251c-0.90348,-0.32427 -1.89408,-0.33481 -2.80375,-0.03193z"/>
   <circle stroke="null" id="svg_4" fill="#030104" r="1.41904" cy="25.0014" cx="5.04979"/>
  </g>
  <g id="svg_5"/>
  <g id="svg_6"/>
  <g id="svg_7"/>
  <g id="svg_8"/>
  <g id="svg_9"/>
  <g id="svg_10"/>
  <g id="svg_11"/>
  <g id="svg_12"/>
  <g id="svg_13"/>
  <g id="svg_14"/>
  <g id="svg_15"/>
  <g id="svg_16"/>
  <g id="svg_17"/>
  <g id="svg_18"/>
  <g id="svg_19"/>
 </g>
</svg>