<svg width="38.566" height="40" xmlns="http://www.w3.org/2000/svg">

 <g>
  <title>Layer 1</title>
  <path stroke="null" id="svg_1" d="m14.61365,0.17023c-6.10107,0.01233 -9.75179,3.24811 -10.76423,6.51548c-1.01244,3.26745 0.30217,6.44049 1.6015,8.24277l0.03387,-0.02086a5.85858,5.40465 0 0 0 4.73767,2.2366a5.85858,5.40465 0 0 0 5.85858,-5.40465a5.85858,5.40465 0 0 0 -5.85858,-5.40465a5.85858,5.40465 0 0 0 -4.55111,2.00791c0.05447,-0.51842 0.15342,-1.03457 0.30785,-1.53289c0.85471,-2.75848 3.07621,-5.10292 8.63985,-5.11964c5.48857,-0.01647 8.63243,5.38608 8.48139,12.9053c-0.13612,6.77617 -1.0962,10.83177 -5.49544,14.46632c-4.39924,3.63463 -9.88178,6.61555 -16.46865,8.99233c-1.19149,0.42992 -0.10719,1.66759 0.59639,1.41712c6.65608,-2.3691 13.25687,-4.49684 17.92616,-8.3545c4.66929,-3.85766 8.80929,-7.28438 8.86211,-16.66094c0.04632,-8.22588 -4.07354,-14.30553 -13.90735,-14.28568zm20.50778,3.46236a2.92929,2.70233 0 0 0 -2.92929,2.70233a2.92929,2.70233 0 0 0 2.92929,2.70233a2.92929,2.70233 0 0 0 2.92929,-2.70233a2.92929,2.70233 0 0 0 -2.92929,-2.70233zm0,10.80931a2.92929,2.70233 0 0 0 -2.92929,2.70233a2.92929,2.70233 0 0 0 2.92929,2.70233a2.92929,2.70233 0 0 0 2.92929,-2.70233a2.92929,2.70233 0 0 0 -2.92929,-2.70233z" fill="#000"/>
 </g>
</svg>