<svg width="14.56" height="41.91" xmlns="http://www.w3.org/2000/svg" version="1.1">
 <title id="title3954">Quarter Rest</title>
 <defs id="defs3914">
  <linearGradient x1="0.6708" y1="0.23068" x2="0.02505" y2="0.79902" id="linearGradient3790">
   <stop offset="0" stop-opacity="0.82639" id="stop3015-2"/>
   <stop offset="1" id="stop3017-3"/>
  </linearGradient>
 </defs>
 <metadata>image/svg+xmlOpenclipartQuarter Rest2010-11-04T18:45:26A single quarter rest.http://openclipart.org/detail/93883/quarter-rest-by-jaschonjaschonblack and whiteclip artclipartflagmusicmusic notemusical notationquarterquaverrestsoundstaff</metadata>
 <g>
  <title>Layer 1</title>
  <path transform="rotate(0.426018 7.31112 20.7769)" stroke="#000" fill="url(#linearGradient3790)" stroke-width="0" stroke-linecap="round" fill-rule="evenodd" d="m13.19679,10.56104c0,2.63629 -5.23171,6.59073 -5.23171,11.86346c0,1.97722 3.92378,7.90888 6.53963,11.20439c-1.30794,-0.65907 -2.61585,-1.31816 -4.57774,-1.31816c-3.92378,0 -5.23171,3.29537 -5.23171,5.27259c0,1.31816 1.30794,2.63629 1.96189,3.95444c-3.92378,-2.63629 -6.53963,-5.27259 -6.53963,-7.90888c0,-6.59073 4.46664,-4.28405 7.73646,-5.60219c-3.26982,-3.29537 -6.42853,-8.23849 -6.42853,-10.21571c0,-1.31816 3.92378,-5.93166 5.23171,-9.22703l0,-1.97722c0,-1.97722 -1.30794,-4.61351 -1.96189,-6.59073c2.61585,3.29537 8.50152,9.22717 8.50152,10.54532l0,-0.00027z" stroke-linejoin="round" id="path2986-1"/>
 </g>
</svg>