<svg width="14.56" height="41.91" xmlns="http://www.w3.org/2000/svg" version="1.0">

 <g>
  <title>Layer 1</title>
  <g fill="#000000" id="layer1">
   <g fill="#000000" id="g2912">
    <path fill="#000000" id="path2918" d="m7.97096,41.20009c-1.717,-0.09085 -3.05874,-1.61496 -3.59713,-3.19103c-0.32619,-0.92504 -0.14703,-2.31276 0.93966,-2.5726c1.57441,-0.2674 2.88086,1.07001 3.61307,2.34987c0.5216,0.94927 0.80997,2.44415 -0.16802,3.19662c-0.23221,0.15573 -0.51292,0.21819 -0.78758,0.21714zm2.73525,-5.40329c-1.93445,-1.1749 -4.37805,-1.26642 -6.49633,-0.6089c-1.34183,0.46915 -2.87644,1.46713 -2.88913,3.0914c-0.00093,1.59146 1.48,2.58425 2.79049,3.05709c2.07469,0.67865 4.46847,0.61897 6.40552,-0.4629c1.09648,-0.58336 2.06833,-1.79134 1.73878,-3.13026c-0.18121,-0.86097 -0.84075,-1.5052 -1.54933,-1.94643z"/>
   </g>
  </g>
 </g>
</svg>